# xmcd CD database file
# Copyright (C) 1996 Ti Kan
#
# Track frame offsets:
#	150
#	21251
#	43137
#	64354
#	82265
#	91084
#	111331
#	127612
#	134456
#	149830
#	167749
# Disc length: 2459 seconds
#
# Revision: 1
# Processed by: cddbd v1.4PL0 Copyright (c) Steve Scherf et al.
# Submitted via: CDCOPY 4.900
#
DISCID=a109990b
DTITLE=Ralph Stanley - Ralph Stanley
DYEAR=1900
DGENRE=
TTITLE0=Lift Him Up, That's All
TTITLE1=False Hearted Lover's Blues
TTITLE2=Henry Lee
TTITLE3=Girl from the Greenbriar Shore
TTITLE4=Twelve Gates to the City
TTITLE5=Little Mathie Grove
TTITLE6=Look On and Cry
TTITLE7=I'll Remember You Love in My Prayers
TTITLE8=Calling You
TTITLE9=The Death of John Henry
TTITLE10=Great High Mountain
EXTD=
EXTT0=
EXTT1=
EXTT2=
EXTT3=
EXTT4=
EXTT5=
EXTT6=
EXTT7=
EXTT8=
EXTT9=
EXTT10=
PLAYORDER=
